<?xml version="1.0" standalone="yes"?>

<svg version="1.1" viewBox="0.0 0.0 233.5301837270341 100.0" fill="none" stroke="none" stroke-linecap="square" stroke-miterlimit="10" xmlns="http://www.w3.org/2000/svg" xmlns:xlink="http://www.w3.org/1999/xlink"><clipPath id="p.0"><path d="m0 0l233.53018 0l0 100.0l-233.53018 0l0 -100.0z" clip-rule="nonzero"></path></clipPath><g clip-path="url(#p.0)"><path fill="#000000" fill-opacity="0.0" d="m0 0l233.53018 0l0 100.0l-233.53018 0z" fill-rule="evenodd"></path><path fill="#0000ff" d="m5.6157284 19.967373l0 0c0 -6.4708633 5.245672 -11.716536 11.716536 -11.716536l0 0c3.107418 0 6.0875645 1.2344179 8.284842 3.431694c2.197277 2.197277 3.431694 5.1774235 3.431694 8.284842l0 0c0 6.4708633 -5.245672 11.716536 -11.716536 11.716536l0 0c-6.4708633 0 -11.716536 -5.245672 -11.716536 -11.716536z" fill-rule="evenodd"></path><path stroke="#000000" stroke-width="1.0" stroke-linejoin="round" stroke-linecap="butt" d="m5.6157284 19.967373l0 0c0 -6.4708633 5.245672 -11.716536 11.716536 -11.716536l0 0c3.107418 0 6.0875645 1.2344179 8.284842 3.431694c2.197277 2.197277 3.431694 5.1774235 3.431694 8.284842l0 0c0 6.4708633 -5.245672 11.716536 -11.716536 11.716536l0 0c-6.4708633 0 -11.716536 -5.245672 -11.716536 -11.716536z" fill-rule="evenodd"></path><path fill="#cfe2f3" d="m62.18266 83.40569l0 0c0 -6.4708633 5.2456703 -11.716537 11.716534 -11.716537l0 0c3.1074219 0 6.0875626 1.2344208 8.284843 3.431694c2.1972733 2.197281 3.431694 5.177429 3.431694 8.284843l0 0c0 6.4708633 -5.245674 11.716537 -11.716537 11.716537l0 0c-6.4708633 0 -11.716534 -5.245674 -11.716534 -11.716537z" fill-rule="evenodd"></path><path stroke="#000000" stroke-width="1.0" stroke-linejoin="round" stroke-linecap="butt" d="m62.18266 83.40569l0 0c0 -6.4708633 5.2456703 -11.716537 11.716534 -11.716537l0 0c3.1074219 0 6.0875626 1.2344208 8.284843 3.431694c2.1972733 2.197281 3.431694 5.177429 3.431694 8.284843l0 0c0 6.4708633 -5.245674 11.716537 -11.716537 11.716537l0 0c-6.4708633 0 -11.716534 -5.245674 -11.716534 -11.716537z" fill-rule="evenodd"></path><path fill="#cfe2f3" d="m110.182655 83.40569l0 0c0 -6.4708633 5.245674 -11.716537 11.716537 -11.716537l0 0c3.1074219 0 6.0875626 1.2344208 8.284843 3.431694c2.197281 2.197281 3.4316864 5.177429 3.4316864 8.284843l0 0c0 6.4708633 -5.2456665 11.716537 -11.71653 11.716537l0 0c-6.4708633 0 -11.716537 -5.245674 -11.716537 -11.716537z" fill-rule="evenodd"></path><path stroke="#000000" stroke-width="1.0" stroke-linejoin="round" stroke-linecap="butt" d="m110.182655 83.40569l0 0c0 -6.4708633 5.245674 -11.716537 11.716537 -11.716537l0 0c3.1074219 0 6.0875626 1.2344208 8.284843 3.431694c2.197281 2.197281 3.4316864 5.177429 3.4316864 8.284843l0 0c0 6.4708633 -5.2456665 11.716537 -11.71653 11.716537l0 0c-6.4708633 0 -11.716537 -5.245674 -11.716537 -11.716537z" fill-rule="evenodd"></path><path fill="#cfe2f3" d="m158.18266 83.40569l0 0c0 -6.4708633 5.2456665 -11.716537 11.716537 -11.716537l0 0c3.1074066 0 6.087555 1.2344208 8.284836 3.431694c2.197281 2.197281 3.4316864 5.177429 3.4316864 8.284843l0 0c0 6.4708633 -5.2456665 11.716537 -11.716522 11.716537l0 0c-6.470871 0 -11.716537 -5.245674 -11.716537 -11.716537z" fill-rule="evenodd"></path><path stroke="#000000" stroke-width="1.0" stroke-linejoin="round" stroke-linecap="butt" d="m158.18266 83.40569l0 0c0 -6.4708633 5.2456665 -11.716537 11.716537 -11.716537l0 0c3.1074066 0 6.087555 1.2344208 8.284836 3.431694c2.197281 2.197281 3.4316864 5.177429 3.4316864 8.284843l0 0c0 6.4708633 -5.2456665 11.716537 -11.716522 11.716537l0 0c-6.470871 0 -11.716537 -5.245674 -11.716537 -11.716537z" fill-rule="evenodd"></path><path fill="#ff9900" d="m110.18397 20.218029l0 0c0 -6.4708633 5.245674 -11.716535 11.716537 -11.716535l0 0c3.1074219 0 6.0875626 1.234417 8.284843 3.431693c2.197281 2.197277 3.4316864 5.1774235 3.4316864 8.284842l0 0c0 6.4708633 -5.2456665 11.716536 -11.71653 11.716536l0 0c-6.4708633 0 -11.716537 -5.245672 -11.716537 -11.716536z" fill-rule="evenodd"></path><path stroke="#000000" stroke-width="1.0" stroke-linejoin="round" stroke-linecap="butt" d="m110.18397 20.218029l0 0c0 -6.4708633 5.245674 -11.716535 11.716537 -11.716535l0 0c3.1074219 0 6.0875626 1.234417 8.284843 3.431693c2.197281 2.197277 3.4316864 5.1774235 3.4316864 8.284842l0 0c0 6.4708633 -5.2456665 11.716536 -11.71653 11.716536l0 0c-6.4708633 0 -11.716537 -5.245672 -11.716537 -11.716536z" fill-rule="evenodd"></path><path fill="#ff9900" d="m158.18398 20.219341l0 0c0 -6.4708633 5.2456665 -11.716535 11.716537 -11.716535l0 0c3.1074066 0 6.087555 1.234417 8.284836 3.431693c2.197281 2.197277 3.4316864 5.1774235 3.4316864 8.284842l0 0c0 6.4708633 -5.2456665 11.716536 -11.716522 11.716536l0 0c-6.470871 0 -11.716537 -5.245672 -11.716537 -11.716536z" fill-rule="evenodd"></path><path stroke="#000000" stroke-width="1.0" stroke-linejoin="round" stroke-linecap="butt" d="m158.18398 20.219341l0 0c0 -6.4708633 5.2456665 -11.716535 11.716537 -11.716535l0 0c3.1074066 0 6.087555 1.234417 8.284836 3.431693c2.197281 2.197277 3.4316864 5.1774235 3.4316864 8.284842l0 0c0 6.4708633 -5.2456665 11.716536 -11.716522 11.716536l0 0c-6.470871 0 -11.716537 -5.245672 -11.716537 -11.716536z" fill-rule="evenodd"></path><path fill="#000000" fill-opacity="0.0" d="m25.617105 28.252214l40.0 46.866142" fill-rule="evenodd"></path><path stroke="#000000" stroke-width="2.0" stroke-linejoin="round" stroke-linecap="butt" d="m25.617105 28.252214l32.209717 37.738632" fill-rule="evenodd"></path><path fill="#000000" stroke="#000000" stroke-width="2.0" stroke-linecap="butt" d="m55.31412 68.13542l8.404881 4.7590103l-3.3794785 -9.048164z" fill-rule="evenodd"></path><path fill="#000000" fill-opacity="0.0" d="m85.61573 83.40569l24.566925 0" fill-rule="evenodd"></path><path stroke="#000000" stroke-width="2.0" stroke-linejoin="round" stroke-linecap="butt" d="m85.61573 83.40569l12.566933 0" fill-rule="evenodd"></path><path fill="#000000" stroke="#000000" stroke-width="2.0" stroke-linecap="butt" d="m98.18266 86.70916l9.076195 -3.3034668l-9.076195 -3.3034668z" fill-rule="evenodd"></path><path fill="#000000" fill-opacity="0.0" d="m133.61572 83.40569l24.56694 0" fill-rule="evenodd"></path><path stroke="#000000" stroke-width="2.0" stroke-linejoin="round" stroke-linecap="butt" d="m133.61574 83.40569l12.566925 0" fill-rule="evenodd"></path><path fill="#000000" stroke="#000000" stroke-width="2.0" stroke-linecap="butt" d="m146.18266 86.70916l9.076187 -3.3034668l-9.076187 -3.3034668z" fill-rule="evenodd"></path><path fill="#000000" fill-opacity="0.0" d="m29.0488 19.967373l81.13386 0.25196838" fill-rule="evenodd"></path><path stroke="#000000" stroke-width="2.0" stroke-linejoin="round" stroke-linecap="butt" d="m29.0488 19.967373l69.13393 0.2147026" fill-rule="evenodd"></path><path fill="#000000" stroke="#000000" stroke-width="2.0" stroke-linecap="butt" d="m98.17246 23.485523l9.0864105 -3.275261l-9.065895 -3.3316364z" fill-rule="evenodd"></path><path fill="#000000" fill-opacity="0.0" d="m133.61703 20.218029l24.56694 0" fill-rule="evenodd"></path><path stroke="#000000" stroke-width="2.0" stroke-linejoin="round" stroke-linecap="butt" d="m133.61705 20.218029l12.566925 0" fill-rule="evenodd"></path><path fill="#000000" stroke="#000000" stroke-width="2.0" stroke-linecap="butt" d="m146.18398 23.521494l9.076187 -3.303465l-9.076187 -3.303465z" fill-rule="evenodd"></path><path fill="#ff0000" d="m206.18398 20.219341l0 0c0 -6.4708633 5.2456665 -11.716535 11.716537 -11.716535l0 0c3.1074066 0 6.087555 1.234417 8.284836 3.431693c2.197281 2.197277 3.4316864 5.1774235 3.4316864 8.284842l0 0c0 6.4708633 -5.2456665 11.716536 -11.716522 11.716536l0 0c-6.470871 0 -11.716537 -5.245672 -11.716537 -11.716536z" fill-rule="evenodd"></path><path stroke="#000000" stroke-width="1.0" stroke-linejoin="round" stroke-linecap="butt" d="m206.18398 20.219341l0 0c0 -6.4708633 5.2456665 -11.716535 11.716537 -11.716535l0 0c3.1074066 0 6.087555 1.234417 8.284836 3.431693c2.197281 2.197277 3.4316864 5.1774235 3.4316864 8.284842l0 0c0 6.4708633 -5.2456665 11.716536 -11.716522 11.716536l0 0c-6.470871 0 -11.716537 -5.245672 -11.716537 -11.716536z" fill-rule="evenodd"></path><path fill="#000000" fill-opacity="0.0" d="m181.61703 20.219341l24.56694 0" fill-rule="evenodd"></path><path stroke="#000000" stroke-width="2.0" stroke-linejoin="round" stroke-linecap="butt" d="m181.61705 20.219341l12.566925 0" fill-rule="evenodd"></path><path fill="#000000" stroke="#000000" stroke-width="2.0" stroke-linecap="butt" d="m194.18398 23.522806l9.076187 -3.303465l-9.076187 -3.303465z" fill-rule="evenodd"></path></g></svg>

