<?xml version="1.0" encoding="UTF-8" standalone="no"?>
<svg
   xmlns:dc="http://purl.org/dc/elements/1.1/"
   xmlns:cc="http://creativecommons.org/ns#"
   xmlns:rdf="http://www.w3.org/1999/02/22-rdf-syntax-ns#"
   xmlns:svg="http://www.w3.org/2000/svg"
   xmlns="http://www.w3.org/2000/svg"
   xmlns:sodipodi="http://sodipodi.sourceforge.net/DTD/sodipodi-0.dtd"
   xmlns:inkscape="http://www.inkscape.org/namespaces/inkscape"
   version="1.1"
   viewBox="0.0 0.0 378.7821522309711 100.0"
   fill="none"
   stroke="none"
   stroke-linecap="square"
   stroke-miterlimit="10"
   id="svg83"
   sodipodi:docname="gitflow4.svg"
   inkscape:export-filename="/home/ztolley/Dropbox/Documents/Barnardos/devs-manual/devops/gitflow4.png"
   inkscape:export-xdpi="101.38"
   inkscape:export-ydpi="101.38"
   inkscape:version="0.92.2 (unknown)">
  <metadata
     id="metadata89">
    <rdf:RDF>
      <cc:Work
         rdf:about="">
        <dc:format>image/svg+xml</dc:format>
        <dc:type
           rdf:resource="http://purl.org/dc/dcmitype/StillImage" />
      </cc:Work>
    </rdf:RDF>
  </metadata>
  <defs
     id="defs87" />
  <sodipodi:namedview
     pagecolor="#ffffff"
     bordercolor="#666666"
     borderopacity="1"
     objecttolerance="10"
     gridtolerance="10"
     guidetolerance="10"
     inkscape:pageopacity="0"
     inkscape:pageshadow="2"
     inkscape:window-width="1364"
     inkscape:window-height="917"
     id="namedview85"
     showgrid="false"
     inkscape:zoom="0.77353167"
     inkscape:cx="189.39108"
     inkscape:cy="50"
     inkscape:window-x="0"
     inkscape:window-y="24"
     inkscape:window-maximized="0"
     inkscape:current-layer="svg83" />
  <clipPath
     id="p.0">
    <path
       d="m0 0l378.78217 0l0 100.0l-378.78217 0l0 -100.0z"
       clip-rule="nonzero"
       id="path2" />
  </clipPath>
  <g
     clip-path="url(#p.0)"
     id="g81"
     transform="translate(0,32)">
    <path
       d="M 0,0 H 378.78217 V 100 H 0 Z"
       id="path5"
       inkscape:connector-curvature="0"
       style="fill:#000000;fill-opacity:0;fill-rule:evenodd" />
    <path
       d="m 3.8638113,16.250866 v 0 c 0,-6.4708643 5.2456713,-11.716536 11.7165357,-11.716536 v 0 c 3.107418,0 6.087565,1.234417 8.284842,3.431694 2.197277,2.197277 3.431694,5.177423 3.431694,8.284842 v 0 c 0,6.470863 -5.245672,11.716536 -11.716536,11.716536 v 0 c -6.470864,0 -11.7165357,-5.245672 -11.7165357,-11.716536 z"
       id="path7"
       inkscape:connector-curvature="0"
       style="fill:#0000ff;fill-rule:evenodd" />
    <path
       d="m 3.8638113,16.250866 v 0 c 0,-6.4708643 5.2456713,-11.716536 11.7165357,-11.716536 v 0 c 3.107418,0 6.087565,1.234417 8.284842,3.431694 2.197277,2.197277 3.431694,5.177423 3.431694,8.284842 v 0 c 0,6.470863 -5.245672,11.716536 -11.716536,11.716536 v 0 c -6.470864,0 -11.7165357,-5.245672 -11.7165357,-11.716536 z"
       id="path9"
       inkscape:connector-curvature="0"
       style="fill-rule:evenodd;stroke:#000000;stroke-width:1;stroke-linecap:butt;stroke-linejoin:round" />
    <path
       d="m 205.38277,16.249554 v 0 c 0,-6.4708643 5.24567,-11.716536 11.71654,-11.716536 v 0 c 3.1074,0 6.08755,1.234417 8.28483,3.4316936 2.19728,2.1972774 3.4317,5.1774234 3.4317,8.2848424 v 0 c 0,6.470863 -5.24568,11.716536 -11.71653,11.716536 v 0 c -6.47087,0 -11.71654,-5.245672 -11.71654,-11.716536 z"
       id="path11"
       inkscape:connector-curvature="0"
       style="fill:#cfe2f3;fill-rule:evenodd" />
    <path
       d="m 205.38277,16.249554 v 0 c 0,-6.4708643 5.24567,-11.716536 11.71654,-11.716536 v 0 c 3.1074,0 6.08755,1.234417 8.28483,3.4316936 2.19728,2.1972774 3.4317,5.1774234 3.4317,8.2848424 v 0 c 0,6.470863 -5.24568,11.716536 -11.71653,11.716536 v 0 c -6.47087,0 -11.71654,-5.245672 -11.71654,-11.716536 z"
       id="path13"
       inkscape:connector-curvature="0"
       style="fill-rule:evenodd;stroke:#000000;stroke-width:1;stroke-linecap:butt;stroke-linejoin:round" />
    <path
       d="m 253.38277,16.249554 v 0 c 0,-6.4708643 5.24568,-11.716536 11.71654,-11.716536 v 0 c 3.10742,0 6.08755,1.234417 8.28485,3.4316936 2.19726,2.1972774 3.43167,5.1774234 3.43167,8.2848424 v 0 c 0,6.470863 -5.24567,11.716536 -11.71652,11.716536 v 0 c -6.47086,0 -11.71654,-5.245672 -11.71654,-11.716536 z"
       id="path15"
       inkscape:connector-curvature="0"
       style="fill:#cfe2f3;fill-rule:evenodd" />
    <path
       d="m 253.38277,16.249554 v 0 c 0,-6.4708643 5.24568,-11.716536 11.71654,-11.716536 v 0 c 3.10742,0 6.08755,1.234417 8.28485,3.4316936 2.19726,2.1972774 3.43167,5.1774234 3.43167,8.2848424 v 0 c 0,6.470863 -5.24567,11.716536 -11.71652,11.716536 v 0 c -6.47086,0 -11.71654,-5.245672 -11.71654,-11.716536 z"
       id="path17"
       inkscape:connector-curvature="0"
       style="fill-rule:evenodd;stroke:#000000;stroke-width:1;stroke-linecap:butt;stroke-linejoin:round" />
    <path
       d="m 301.38275,16.249554 v 0 c 0,-6.4708643 5.2457,-11.716536 11.71655,-11.716536 v 0 c 3.10742,0 6.08756,1.234417 8.28485,3.4316936 2.19727,2.1972774 3.43168,5.1774234 3.43168,8.2848424 v 0 c 0,6.470863 -5.24567,11.716536 -11.71653,11.716536 v 0 c -6.47085,0 -11.71655,-5.245672 -11.71655,-11.716536 z"
       id="path19"
       inkscape:connector-curvature="0"
       style="fill:#cfe2f3;fill-rule:evenodd" />
    <path
       d="m 301.38275,16.249554 v 0 c 0,-6.4708643 5.2457,-11.716536 11.71655,-11.716536 v 0 c 3.10742,0 6.08756,1.234417 8.28485,3.4316936 2.19727,2.1972774 3.43168,5.1774234 3.43168,8.2848424 v 0 c 0,6.470863 -5.24567,11.716536 -11.71653,11.716536 v 0 c -6.47085,0 -11.71655,-5.245672 -11.71655,-11.716536 z"
       id="path21"
       inkscape:connector-curvature="0"
       style="fill-rule:evenodd;stroke:#000000;stroke-width:1;stroke-linecap:butt;stroke-linejoin:round" />
    <path
       d="m 62.79426,16.249554 v 0 c 0,-6.4708643 5.245674,-11.716536 11.716537,-11.716536 v 0 c 3.107414,0 6.087563,1.234417 8.284836,3.4316936 2.197281,2.1972774 3.431694,5.1774234 3.431694,8.2848424 v 0 c 0,6.470863 -5.245667,11.716536 -11.71653,11.716536 v 0 c -6.470863,0 -11.716537,-5.245672 -11.716537,-11.716536 z"
       id="path23"
       inkscape:connector-curvature="0"
       style="fill:#ff9900;fill-rule:evenodd" />
    <path
       d="m 62.79426,16.249554 v 0 c 0,-6.4708643 5.245674,-11.716536 11.716537,-11.716536 v 0 c 3.107414,0 6.087563,1.234417 8.284836,3.4316936 2.197281,2.1972774 3.431694,5.1774234 3.431694,8.2848424 v 0 c 0,6.470863 -5.245667,11.716536 -11.71653,11.716536 v 0 c -6.470863,0 -11.716537,-5.245672 -11.716537,-11.716536 z"
       id="path25"
       inkscape:connector-curvature="0"
       style="fill-rule:evenodd;stroke:#000000;stroke-width:1;stroke-linecap:butt;stroke-linejoin:round" />
    <path
       d="m 110.79426,16.250866 v 0 c 0,-6.4708643 5.24567,-11.716536 11.71654,-11.716536 v 0 c 3.10741,0 6.08756,1.234417 8.28484,3.431694 2.19727,2.197277 3.43169,5.177423 3.43169,8.284842 v 0 c 0,6.470863 -5.24567,11.716536 -11.71653,11.716536 v 0 c -6.47087,0 -11.71654,-5.245672 -11.71654,-11.716536 z"
       id="path27"
       inkscape:connector-curvature="0"
       style="fill:#ff9900;fill-rule:evenodd" />
    <path
       d="m 110.79426,16.250866 v 0 c 0,-6.4708643 5.24567,-11.716536 11.71654,-11.716536 v 0 c 3.10741,0 6.08756,1.234417 8.28484,3.431694 2.19727,2.197277 3.43169,5.177423 3.43169,8.284842 v 0 c 0,6.470863 -5.24567,11.716536 -11.71653,11.716536 v 0 c -6.47087,0 -11.71654,-5.245672 -11.71654,-11.716536 z"
       id="path29"
       inkscape:connector-curvature="0"
       style="fill-rule:evenodd;stroke:#000000;stroke-width:1;stroke-linecap:butt;stroke-linejoin:round" />
    <path
       d="m 182.22733,16.250866 h 23.14961"
       id="path31"
       inkscape:connector-curvature="0"
       style="fill:#000000;fill-opacity:0;fill-rule:evenodd" />
    <path
       d="m 182.22733,16.250866 h 11.1496"
       id="path33"
       inkscape:connector-curvature="0"
       style="fill-rule:evenodd;stroke:#000000;stroke-width:2;stroke-linecap:butt;stroke-linejoin:round" />
    <path
       d="m 193.37692,19.55433 9.0762,-3.303465 -9.0762,-3.303466 z"
       id="path35"
       inkscape:connector-curvature="0"
       style="fill:#000000;fill-rule:evenodd;stroke:#000000;stroke-width:2;stroke-linecap:butt" />
    <path
       d="m 228.81584,16.249554 h 24.56692"
       id="path37"
       inkscape:connector-curvature="0"
       style="fill:#000000;fill-opacity:0;fill-rule:evenodd" />
    <path
       d="m 228.81584,16.249554 h 12.56692"
       id="path39"
       inkscape:connector-curvature="0"
       style="fill-rule:evenodd;stroke:#000000;stroke-width:2;stroke-linecap:butt;stroke-linejoin:round" />
    <path
       d="m 241.38277,19.553017 9.0762,-3.303463 -9.0762,-3.303466 z"
       id="path41"
       inkscape:connector-curvature="0"
       style="fill:#000000;fill-rule:evenodd;stroke:#000000;stroke-width:2;stroke-linecap:butt" />
    <path
       d="m 276.81583,16.249554 h 24.56693"
       id="path43"
       inkscape:connector-curvature="0"
       style="fill:#000000;fill-opacity:0;fill-rule:evenodd" />
    <path
       d="m 276.81586,16.249554 h 12.56692"
       id="path45"
       inkscape:connector-curvature="0"
       style="fill-rule:evenodd;stroke:#000000;stroke-width:2;stroke-linecap:butt;stroke-linejoin:round" />
    <path
       d="m 289.38278,19.553017 9.07617,-3.303463 -9.07617,-3.303466 z"
       id="path47"
       inkscape:connector-curvature="0"
       style="fill:#000000;fill-rule:evenodd;stroke:#000000;stroke-width:2;stroke-linecap:butt" />
    <path
       d="M 27.296883,16.250866 H 62.792946"
       id="path49"
       inkscape:connector-curvature="0"
       style="fill:#000000;fill-opacity:0;fill-rule:evenodd" />
    <path
       d="m 27.296883,16.250866 h 23.49606"
       id="path51"
       inkscape:connector-curvature="0"
       style="fill-rule:evenodd;stroke:#000000;stroke-width:2;stroke-linecap:butt;stroke-linejoin:round" />
    <path
       d="m 50.792942,19.55433 9.076195,-3.303465 -9.076195,-3.303466 z"
       id="path53"
       inkscape:connector-curvature="0"
       style="fill:#000000;fill-rule:evenodd;stroke:#000000;stroke-width:2;stroke-linecap:butt" />
    <path
       d="M 86.227325,16.249554 H 110.79426"
       id="path55"
       inkscape:connector-curvature="0"
       style="fill:#000000;fill-opacity:0;fill-rule:evenodd" />
    <path
       d="M 86.22733,16.249554 H 98.794255"
       id="path57"
       inkscape:connector-curvature="0"
       style="fill-rule:evenodd;stroke:#000000;stroke-width:2;stroke-linecap:butt;stroke-linejoin:round" />
    <path
       d="m 98.79426,19.553017 9.07619,-3.303463 -9.07619,-3.303466 z"
       id="path59"
       inkscape:connector-curvature="0"
       style="fill:#000000;fill-rule:evenodd;stroke:#000000;stroke-width:2;stroke-linecap:butt" />
    <path
       d="m 158.79425,16.250866 v 0 c 0,-6.4708643 5.24568,-11.716536 11.71654,-11.716536 v 0 c 3.10742,0 6.08757,1.234417 8.28485,3.431694 2.19726,2.197277 3.43168,5.177423 3.43168,8.284842 v 0 c 0,6.470863 -5.24566,11.716536 -11.71653,11.716536 v 0 c -6.47086,0 -11.71654,-5.245672 -11.71654,-11.716536 z"
       id="path61"
       inkscape:connector-curvature="0"
       style="fill:#ff0000;fill-rule:evenodd" />
    <path
       d="m 158.79425,16.250866 v 0 c 0,-6.4708643 5.24568,-11.716536 11.71654,-11.716536 v 0 c 3.10742,0 6.08757,1.234417 8.28485,3.431694 2.19726,2.197277 3.43168,5.177423 3.43168,8.284842 v 0 c 0,6.470863 -5.24566,11.716536 -11.71653,11.716536 v 0 c -6.47086,0 -11.71654,-5.245672 -11.71654,-11.716536 z"
       id="path63"
       inkscape:connector-curvature="0"
       style="fill-rule:evenodd;stroke:#000000;stroke-width:1;stroke-linecap:butt;stroke-linejoin:round" />
    <path
       d="m 134.22733,16.250866 h 24.56692"
       id="path65"
       inkscape:connector-curvature="0"
       style="fill:#000000;fill-opacity:0;fill-rule:evenodd" />
    <path
       d="m 134.22733,16.250866 h 12.56694"
       id="path67"
       inkscape:connector-curvature="0"
       style="fill-rule:evenodd;stroke:#000000;stroke-width:2;stroke-linecap:butt;stroke-linejoin:round" />
    <path
       d="m 146.79427,19.55433 9.07619,-3.303465 -9.07619,-3.303466 z"
       id="path69"
       inkscape:connector-curvature="0"
       style="fill:#000000;fill-rule:evenodd;stroke:#000000;stroke-width:2;stroke-linecap:butt" />
    <path
       d="m 349.38275,15.649053 v 0 c 0,-6.4708643 5.2457,-11.716536 11.71655,-11.716536 v 0 c 3.10742,0 6.08756,1.234417 8.28485,3.4316936 2.19727,2.1972766 3.43168,5.1774244 3.43168,8.2848424 v 0 c 0,6.470864 -5.24567,11.716535 -11.71653,11.716535 v 0 c -6.47085,0 -11.71655,-5.245671 -11.71655,-11.716535 z"
       id="path71"
       inkscape:connector-curvature="0"
       style="fill:#ff0000;fill-rule:evenodd" />
    <path
       d="m 349.38275,15.649053 v 0 c 0,-6.4708643 5.2457,-11.716536 11.71655,-11.716536 v 0 c 3.10742,0 6.08756,1.234417 8.28485,3.4316936 2.19727,2.1972766 3.43168,5.1774244 3.43168,8.2848424 v 0 c 0,6.470864 -5.24567,11.716535 -11.71653,11.716535 v 0 c -6.47085,0 -11.71655,-5.245671 -11.71655,-11.716535 z"
       id="path73"
       inkscape:connector-curvature="0"
       style="fill-rule:evenodd;stroke:#000000;stroke-width:1;stroke-linecap:butt;stroke-linejoin:round" />
    <path
       d="m 324.81583,15.649053 h 24.56693"
       id="path75"
       inkscape:connector-curvature="0"
       style="fill:#000000;fill-opacity:0;fill-rule:evenodd" />
    <path
       d="m 324.81586,15.649053 h 12.56689"
       id="path77"
       inkscape:connector-curvature="0"
       style="fill-rule:evenodd;stroke:#000000;stroke-width:2;stroke-linecap:butt;stroke-linejoin:round" />
    <path
       d="m 337.38275,18.952518 9.0762,-3.303466 -9.0762,-3.303465 z"
       id="path79"
       inkscape:connector-curvature="0"
       style="fill:#000000;fill-rule:evenodd;stroke:#000000;stroke-width:2;stroke-linecap:butt" />
  </g>
</svg>
