<?xml version="1.0" standalone="yes"?>

<svg version="1.1" viewBox="0.0 0.0 312.65879265091866 100.0" fill="none" stroke="none" stroke-linecap="square" stroke-miterlimit="10" xmlns="http://www.w3.org/2000/svg" xmlns:xlink="http://www.w3.org/1999/xlink"><clipPath id="p.0"><path d="m0 0l312.65878 0l0 100.0l-312.65878 0l0 -100.0z" clip-rule="nonzero"></path></clipPath><g clip-path="url(#p.0)"><path fill="#000000" fill-opacity="0.0" d="m0 0l312.65878 0l0 100.0l-312.65878 0z" fill-rule="evenodd"></path><path fill="#0000ff" d="m1.3463538 22.5812l0 0c0 -6.4708633 5.2456713 -11.716535 11.716536 -11.716535l0 0c3.107418 0 6.0875645 1.234417 8.284842 3.431694c2.197277 2.197276 3.431694 5.1774225 3.431694 8.284841l0 0c0 6.4708652 -5.245672 11.716537 -11.716536 11.716537l0 0c-6.470864 0 -11.716536 -5.245672 -11.716536 -11.716537z" fill-rule="evenodd"></path><path stroke="#000000" stroke-width="1.0" stroke-linejoin="round" stroke-linecap="butt" d="m1.3463538 22.5812l0 0c0 -6.4708633 5.2456713 -11.716535 11.716536 -11.716535l0 0c3.107418 0 6.0875645 1.234417 8.284842 3.431694c2.197277 2.197276 3.431694 5.1774225 3.431694 8.284841l0 0c0 6.4708652 -5.245672 11.716537 -11.716536 11.716537l0 0c-6.470864 0 -11.716536 -5.245672 -11.716536 -11.716537z" fill-rule="evenodd"></path><path fill="#cfe2f3" d="m191.22562 68.84629l0 0c0 -6.4708633 5.2456665 -11.716534 11.716537 -11.716534l0 0c3.1074219 0 6.08757 1.234417 8.284836 3.431694c2.197281 2.197277 3.4317017 5.1774254 3.4317017 8.28484l0 0c0 6.4708633 -5.2456665 11.716537 -11.716537 11.716537l0 0c-6.470871 0 -11.716537 -5.245674 -11.716537 -11.716537z" fill-rule="evenodd"></path><path stroke="#000000" stroke-width="1.0" stroke-linejoin="round" stroke-linecap="butt" d="m191.22562 68.84629l0 0c0 -6.4708633 5.2456665 -11.716534 11.716537 -11.716534l0 0c3.1074219 0 6.08757 1.234417 8.284836 3.431694c2.197281 2.197277 3.4317017 5.1774254 3.4317017 8.28484l0 0c0 6.4708633 -5.2456665 11.716537 -11.716537 11.716537l0 0c-6.470871 0 -11.716537 -5.245674 -11.716537 -11.716537z" fill-rule="evenodd"></path><path fill="#cfe2f3" d="m239.22562 68.84629l0 0c0 -6.4708633 5.2456665 -11.716534 11.716537 -11.716534l0 0c3.1074219 0 6.08757 1.234417 8.284836 3.431694c2.1972961 2.197277 3.4317017 5.1774254 3.4317017 8.28484l0 0c0 6.4708633 -5.2456665 11.716537 -11.716537 11.716537l0 0c-6.470871 0 -11.716537 -5.245674 -11.716537 -11.716537z" fill-rule="evenodd"></path><path stroke="#000000" stroke-width="1.0" stroke-linejoin="round" stroke-linecap="butt" d="m239.22562 68.84629l0 0c0 -6.4708633 5.2456665 -11.716534 11.716537 -11.716534l0 0c3.1074219 0 6.08757 1.234417 8.284836 3.431694c2.1972961 2.197277 3.4317017 5.1774254 3.4317017 8.28484l0 0c0 6.4708633 -5.2456665 11.716537 -11.716537 11.716537l0 0c-6.470871 0 -11.716537 -5.245674 -11.716537 -11.716537z" fill-rule="evenodd"></path><path fill="#cfe2f3" d="m287.22562 68.84629l0 0c0 -6.4708633 5.2456665 -11.716534 11.716553 -11.716534l0 0c3.1073914 0 6.087555 1.234417 8.284821 3.431694c2.1972961 2.197277 3.4317017 5.1774254 3.4317017 8.28484l0 0c0 6.4708633 -5.2456665 11.716537 -11.716522 11.716537l0 0c-6.470886 0 -11.716553 -5.245674 -11.716553 -11.716537z" fill-rule="evenodd"></path><path stroke="#000000" stroke-width="1.0" stroke-linejoin="round" stroke-linecap="butt" d="m287.22562 68.84629l0 0c0 -6.4708633 5.2456665 -11.716534 11.716553 -11.716534l0 0c3.1073914 0 6.087555 1.234417 8.284821 3.431694c2.1972961 2.197277 3.4317017 5.1774254 3.4317017 8.28484l0 0c0 6.4708633 -5.2456665 11.716537 -11.716522 11.716537l0 0c-6.470886 0 -11.716553 -5.245674 -11.716553 -11.716537z" fill-rule="evenodd"></path><path fill="#ff9900" d="m60.2768 22.579887l0 0c0 -6.4708633 5.2456703 -11.716535 11.716534 -11.716535l0 0c3.1074219 0 6.08757 1.234417 8.284843 3.431693c2.197281 2.197277 3.431694 5.1774235 3.431694 8.284842l0 0c0 6.4708652 -5.2456665 11.716537 -11.716537 11.716537l0 0c-6.4708633 0 -11.716534 -5.245672 -11.716534 -11.716537z" fill-rule="evenodd"></path><path stroke="#000000" stroke-width="1.0" stroke-linejoin="round" stroke-linecap="butt" d="m60.2768 22.579887l0 0c0 -6.4708633 5.2456703 -11.716535 11.716534 -11.716535l0 0c3.1074219 0 6.08757 1.234417 8.284843 3.431693c2.197281 2.197277 3.431694 5.1774235 3.431694 8.284842l0 0c0 6.4708652 -5.2456665 11.716537 -11.716537 11.716537l0 0c-6.4708633 0 -11.716534 -5.245672 -11.716534 -11.716537z" fill-rule="evenodd"></path><path fill="#ff9900" d="m108.2768 22.5812l0 0c0 -6.4708633 5.2456665 -11.716535 11.71653 -11.716535l0 0c3.1074219 0 6.08757 1.234417 8.284851 3.431694c2.1972656 2.197276 3.4316864 5.1774225 3.4316864 8.284841l0 0c0 6.4708652 -5.2456665 11.716537 -11.716537 11.716537l0 0c-6.4708633 0 -11.71653 -5.245672 -11.71653 -11.716537z" fill-rule="evenodd"></path><path stroke="#000000" stroke-width="1.0" stroke-linejoin="round" stroke-linecap="butt" d="m108.2768 22.5812l0 0c0 -6.4708633 5.2456665 -11.716535 11.71653 -11.716535l0 0c3.1074219 0 6.08757 1.234417 8.284851 3.431694c2.1972656 2.197276 3.4316864 5.1774225 3.4316864 8.284841l0 0c0 6.4708652 -5.2456665 11.716537 -11.716537 11.716537l0 0c-6.4708633 0 -11.71653 -5.245672 -11.71653 -11.716537z" fill-rule="evenodd"></path><path fill="#000000" fill-opacity="0.0" d="m176.27818 30.866041l18.393692 29.700788" fill-rule="evenodd"></path><path stroke="#000000" stroke-width="2.0" stroke-linejoin="round" stroke-linecap="butt" d="m176.27817 30.866041l12.075592 19.498762" fill-rule="evenodd"></path><path fill="#000000" stroke="#000000" stroke-width="2.0" stroke-linecap="butt" d="m185.54526 52.10411l7.587204 5.9769936l-1.9701996 -9.455608z" fill-rule="evenodd"></path><path fill="#000000" fill-opacity="0.0" d="m214.65869 68.84629l24.566925 0" fill-rule="evenodd"></path><path stroke="#000000" stroke-width="2.0" stroke-linejoin="round" stroke-linecap="butt" d="m214.65869 68.84629l12.566925 0" fill-rule="evenodd"></path><path fill="#000000" stroke="#000000" stroke-width="2.0" stroke-linecap="butt" d="m227.22562 72.14976l9.076202 -3.3034668l-9.076202 -3.3034592z" fill-rule="evenodd"></path><path fill="#000000" fill-opacity="0.0" d="m262.6587 68.84629l24.566925 0" fill-rule="evenodd"></path><path stroke="#000000" stroke-width="2.0" stroke-linejoin="round" stroke-linecap="butt" d="m262.6587 68.84629l12.566925 0" fill-rule="evenodd"></path><path fill="#000000" stroke="#000000" stroke-width="2.0" stroke-linecap="butt" d="m275.22562 72.14976l9.076202 -3.3034668l-9.076202 -3.3034592z" fill-rule="evenodd"></path><path fill="#000000" fill-opacity="0.0" d="m24.779425 22.5812l35.496063 0" fill-rule="evenodd"></path><path stroke="#000000" stroke-width="2.0" stroke-linejoin="round" stroke-linecap="butt" d="m24.779425 22.581202l23.496065 0" fill-rule="evenodd"></path><path fill="#000000" stroke="#000000" stroke-width="2.0" stroke-linecap="butt" d="m48.27549 25.884666l9.076195 -3.303465l-9.076195 -3.303465z" fill-rule="evenodd"></path><path fill="#000000" fill-opacity="0.0" d="m83.70987 22.579887l24.566933 0" fill-rule="evenodd"></path><path stroke="#000000" stroke-width="2.0" stroke-linejoin="round" stroke-linecap="butt" d="m83.70987 22.57989l12.566933 0" fill-rule="evenodd"></path><path fill="#000000" stroke="#000000" stroke-width="2.0" stroke-linecap="butt" d="m96.2768 25.883354l9.076195 -3.303465l-9.076195 -3.303465z" fill-rule="evenodd"></path><path fill="#ff0000" d="m156.2768 22.5812l0 0c0 -6.4708633 5.245682 -11.716535 11.716537 -11.716535l0 0c3.1074219 0 6.08757 1.234417 8.284851 3.431694c2.1972656 2.197276 3.4316864 5.1774225 3.4316864 8.284841l0 0c0 6.4708652 -5.2456665 11.716537 -11.716537 11.716537l0 0c-6.4708557 0 -11.716537 -5.245672 -11.716537 -11.716537z" fill-rule="evenodd"></path><path stroke="#000000" stroke-width="1.0" stroke-linejoin="round" stroke-linecap="butt" d="m156.2768 22.5812l0 0c0 -6.4708633 5.245682 -11.716535 11.716537 -11.716535l0 0c3.1074219 0 6.08757 1.234417 8.284851 3.431694c2.1972656 2.197276 3.4316864 5.1774225 3.4316864 8.284841l0 0c0 6.4708652 -5.2456665 11.716537 -11.716537 11.716537l0 0c-6.4708557 0 -11.716537 -5.245672 -11.716537 -11.716537z" fill-rule="evenodd"></path><path fill="#000000" fill-opacity="0.0" d="m131.70987 22.5812l24.566925 0" fill-rule="evenodd"></path><path stroke="#000000" stroke-width="2.0" stroke-linejoin="round" stroke-linecap="butt" d="m131.70987 22.581202l12.566925 0" fill-rule="evenodd"></path><path fill="#000000" stroke="#000000" stroke-width="2.0" stroke-linecap="butt" d="m144.2768 25.884666l9.076202 -3.303465l-9.076202 -3.303465z" fill-rule="evenodd"></path></g></svg>

