<?xml version="1.0" standalone="yes"?>

<svg version="1.1" viewBox="0.0 0.0 187.82677165354332 100.0" fill="none" stroke="none" stroke-linecap="square" stroke-miterlimit="10" xmlns="http://www.w3.org/2000/svg" xmlns:xlink="http://www.w3.org/1999/xlink"><clipPath id="p.0"><path d="m0 0l187.82677 0l0 100.0l-187.82677 0l0 -100.0z" clip-rule="nonzero"></path></clipPath><g clip-path="url(#p.0)"><path fill="#000000" fill-opacity="0.0" d="m0 0l187.82677 0l0 100.0l-187.82677 0z" fill-rule="evenodd"></path><path fill="#0000ff" d="m7.9986877 45.907703l0 0c0 -6.4708633 5.2456713 -11.716534 11.716536 -11.716534l0 0c3.107418 0 6.0875645 1.234417 8.284842 3.431694c2.197277 2.197277 3.431694 5.1774216 3.431694 8.28484l0 0c0 6.4708633 -5.245672 11.716537 -11.716536 11.716537l0 0c-6.4708643 0 -11.716536 -5.245674 -11.716536 -11.716537z" fill-rule="evenodd"></path><path stroke="#000000" stroke-width="1.0" stroke-linejoin="round" stroke-linecap="butt" d="m7.9986877 45.907703l0 0c0 -6.4708633 5.2456713 -11.716534 11.716536 -11.716534l0 0c3.107418 0 6.0875645 1.234417 8.284842 3.431694c2.197277 2.197277 3.431694 5.1774216 3.431694 8.28484l0 0c0 6.4708633 -5.245672 11.716537 -11.716536 11.716537l0 0c-6.4708643 0 -11.716536 -5.245674 -11.716536 -11.716537z" fill-rule="evenodd"></path><path fill="#cfe2f3" d="m64.56562 85.34602l0 0c0 -6.4708633 5.2456665 -11.716537 11.71653 -11.716537l0 0c3.1074219 0 6.08757 1.2344208 8.284843 3.431694c2.1972733 2.197281 3.431694 5.177429 3.431694 8.284843l0 0c0 6.4708633 -5.245674 11.716537 -11.716537 11.716537l0 0c-6.4708633 0 -11.71653 -5.245674 -11.71653 -11.716537z" fill-rule="evenodd"></path><path stroke="#000000" stroke-width="1.0" stroke-linejoin="round" stroke-linecap="butt" d="m64.56562 85.34602l0 0c0 -6.4708633 5.2456665 -11.716537 11.71653 -11.716537l0 0c3.1074219 0 6.08757 1.2344208 8.284843 3.431694c2.1972733 2.197281 3.431694 5.177429 3.431694 8.284843l0 0c0 6.4708633 -5.245674 11.716537 -11.716537 11.716537l0 0c-6.4708633 0 -11.71653 -5.245674 -11.71653 -11.716537z" fill-rule="evenodd"></path><path fill="#cfe2f3" d="m112.56562 85.34602l0 0c0 -6.4708633 5.2456665 -11.716537 11.71653 -11.716537l0 0c3.1074219 0 6.08757 1.2344208 8.284851 3.431694c2.1972656 2.197281 3.4316864 5.177429 3.4316864 8.284843l0 0c0 6.4708633 -5.2456665 11.716537 -11.716537 11.716537l0 0c-6.4708633 0 -11.71653 -5.245674 -11.71653 -11.716537z" fill-rule="evenodd"></path><path stroke="#000000" stroke-width="1.0" stroke-linejoin="round" stroke-linecap="butt" d="m112.56562 85.34602l0 0c0 -6.4708633 5.2456665 -11.716537 11.71653 -11.716537l0 0c3.1074219 0 6.08757 1.2344208 8.284851 3.431694c2.1972656 2.197281 3.4316864 5.177429 3.4316864 8.284843l0 0c0 6.4708633 -5.2456665 11.716537 -11.716537 11.716537l0 0c-6.4708633 0 -11.71653 -5.245674 -11.71653 -11.716537z" fill-rule="evenodd"></path><path fill="#cfe2f3" d="m160.56561 85.34602l0 0c0 -6.4708633 5.245682 -11.716537 11.716537 -11.716537l0 0c3.1074219 0 6.08757 1.2344208 8.284851 3.431694c2.1972656 2.197281 3.4316864 5.177429 3.4316864 8.284843l0 0c0 6.4708633 -5.2456665 11.716537 -11.716537 11.716537l0 0c-6.4708557 0 -11.716537 -5.245674 -11.716537 -11.716537z" fill-rule="evenodd"></path><path stroke="#000000" stroke-width="1.0" stroke-linejoin="round" stroke-linecap="butt" d="m160.56561 85.34602l0 0c0 -6.4708633 5.245682 -11.716537 11.716537 -11.716537l0 0c3.1074219 0 6.08757 1.2344208 8.284851 3.431694c2.1972656 2.197281 3.4316864 5.177429 3.4316864 8.284843l0 0c0 6.4708633 -5.2456665 11.716537 -11.716537 11.716537l0 0c-6.4708557 0 -11.716537 -5.245674 -11.716537 -11.716537z" fill-rule="evenodd"></path><path fill="#ff9900" d="m71.27821 19.212166l0 0c0 -6.4708633 5.245674 -11.716535 11.716537 -11.716535l0 0c3.1074219 0 6.0875626 1.234417 8.284843 3.431694c2.1972733 2.197276 3.431694 5.1774225 3.431694 8.284841l0 0c0 6.4708652 -5.245674 11.716536 -11.716537 11.716536l0 0c-6.4708633 0 -11.716537 -5.2456703 -11.716537 -11.716536z" fill-rule="evenodd"></path><path stroke="#000000" stroke-width="1.0" stroke-linejoin="round" stroke-linecap="butt" d="m71.27821 19.212166l0 0c0 -6.4708633 5.245674 -11.716535 11.716537 -11.716535l0 0c3.1074219 0 6.0875626 1.234417 8.284843 3.431694c2.1972733 2.197276 3.431694 5.1774225 3.431694 8.284841l0 0c0 6.4708652 -5.245674 11.716536 -11.716537 11.716536l0 0c-6.4708633 0 -11.716537 -5.2456703 -11.716537 -11.716536z" fill-rule="evenodd"></path><path fill="#ff9900" d="m121.53281 19.212166l0 0c0 -6.4708633 5.245674 -11.716535 11.716537 -11.716535l0 0c3.1074219 0 6.08757 1.234417 8.284836 3.431694c2.197281 2.197276 3.4317017 5.1774225 3.4317017 8.284841l0 0c0 6.4708652 -5.2456665 11.716536 -11.716537 11.716536l0 0c-6.4708633 0 -11.716537 -5.2456703 -11.716537 -11.716536z" fill-rule="evenodd"></path><path stroke="#000000" stroke-width="1.0" stroke-linejoin="round" stroke-linecap="butt" d="m121.53281 19.212166l0 0c0 -6.4708633 5.245674 -11.716535 11.716537 -11.716535l0 0c3.1074219 0 6.08757 1.234417 8.284836 3.431694c2.197281 2.197276 3.4317017 5.1774225 3.4317017 8.284841l0 0c0 6.4708652 -5.2456665 11.716536 -11.716537 11.716536l0 0c-6.4708633 0 -11.716537 -5.2456703 -11.716537 -11.716536z" fill-rule="evenodd"></path><path fill="#000000" fill-opacity="0.0" d="m28.000065 54.192547l39.999996 22.866138" fill-rule="evenodd"></path><path stroke="#000000" stroke-width="2.0" stroke-linejoin="round" stroke-linecap="butt" d="m28.000065 54.192543l29.582096 16.910713" fill-rule="evenodd"></path><path fill="#000000" stroke="#000000" stroke-width="2.0" stroke-linecap="butt" d="m55.942696 73.97118l9.519043 1.6364594l-6.240116 -7.372322z" fill-rule="evenodd"></path><path fill="#000000" fill-opacity="0.0" d="m87.99869 85.34602l24.566933 0" fill-rule="evenodd"></path><path stroke="#000000" stroke-width="2.0" stroke-linejoin="round" stroke-linecap="butt" d="m87.99869 85.34602l12.566933 0" fill-rule="evenodd"></path><path fill="#000000" stroke="#000000" stroke-width="2.0" stroke-linecap="butt" d="m100.56562 88.64949l9.076195 -3.3034668l-9.076195 -3.3034592z" fill-rule="evenodd"></path><path fill="#000000" fill-opacity="0.0" d="m135.99869 85.34602l24.566925 0" fill-rule="evenodd"></path><path stroke="#000000" stroke-width="2.0" stroke-linejoin="round" stroke-linecap="butt" d="m135.99869 85.34602l12.566925 0" fill-rule="evenodd"></path><path fill="#000000" stroke="#000000" stroke-width="2.0" stroke-linecap="butt" d="m148.56561 88.64949l9.076202 -3.3034668l-9.076202 -3.3034592z" fill-rule="evenodd"></path><path fill="#000000" fill-opacity="0.0" d="m28.000065 37.622864l43.275593 -18.425198" fill-rule="evenodd"></path><path stroke="#000000" stroke-width="2.0" stroke-linejoin="round" stroke-linecap="butt" d="m28.000065 37.622864l32.234657 -13.724365" fill-rule="evenodd"></path><path fill="#000000" stroke="#000000" stroke-width="2.0" stroke-linecap="butt" d="m61.528812 26.937944l7.0567207 -6.5949173l-9.644894 0.51602745z" fill-rule="evenodd"></path><path fill="#000000" fill-opacity="0.0" d="m94.71129 19.212166l26.83464 0" fill-rule="evenodd"></path><path stroke="#000000" stroke-width="2.0" stroke-linejoin="round" stroke-linecap="butt" d="m94.71129 19.212166l14.8346405 0" fill-rule="evenodd"></path><path fill="#000000" stroke="#000000" stroke-width="2.0" stroke-linecap="butt" d="m109.54593 22.51563l9.076195 -3.303465l-9.076195 -3.303464z" fill-rule="evenodd"></path></g></svg>

